<?xml version="1.0" encoding="UTF-8"?>
<svg version="1.1" xmlns="http://www.w3.org/2000/svg" width="102" height="150">
<path d="M0 0 C1.75 0.875 1.75 0.875 2.75 2.875 C2.83918777 4.26409304 2.86759541 5.65736907 2.86352539 7.04931641 C2.86344986 7.91005768 2.86337433 8.77079895 2.86329651 9.65762329 C2.85813522 10.58787323 2.85297394 11.51812317 2.84765625 12.4765625 C2.8462413 13.42816254 2.84482635 14.37976257 2.84336853 15.36019897 C2.83776012 18.40683097 2.82520619 21.45339013 2.8125 24.5 C2.80748608 26.56249894 2.80292299 28.62499903 2.79882812 30.6875 C2.78863781 35.75005081 2.76906402 40.81244363 2.75 45.875 C-4.84 45.875 -12.43 45.875 -20.25 45.875 C-18.79296606 29.84762671 -16.40535107 13.24833562 -4.625 1.1875 C-2.25 -0.125 -2.25 -0.125 0 0 Z " fill="#000000" transform="translate(54.25,41.125)"/>
<path d="M0 0 C4.6314797 2.53420588 8.31032562 4.93097685 10 10 C10.41110876 14.22177069 10.47543683 17.87396541 8.8125 21.8125 C6.28549495 24.86233368 3.55081434 27.22459283 0 29 C-5.22592826 29.44287528 -8.99392271 29.29524301 -13.453125 26.390625 C-16.88252545 23.30762863 -18.81118003 19.52074654 -19.15625 14.9140625 C-18.78677203 10.09237494 -17.18425815 6.70062433 -14 3 C-9.53789327 -0.0423455 -5.27983717 -0.96955094 0 0 Z " fill="#000000" transform="translate(71,15)"/>
<path d="M0 0 C2.12472576 -0.05386629 4.24983652 -0.09273071 6.375 -0.125 C7.55835938 -0.14820313 8.74171875 -0.17140625 9.9609375 -0.1953125 C13 0 13 0 15 2 C14.625 4.125 14.625 4.125 14 6 C8.5610835 6.21755666 4.12919186 6.10428384 -1 4 C-0.67 2.68 -0.34 1.36 0 0 Z " fill="#000000" transform="translate(26,134)"/>
<path d="M0 0 C-0.33 1.65 -0.66 3.3 -1 5 C-10.41002278 8.44419134 -10.41002278 8.44419134 -15 8 C-14.8359375 5.6484375 -14.8359375 5.6484375 -14 3 C-11.6015625 1.6015625 -11.6015625 1.6015625 -8.625 0.625 C-7.64789063 0.28726563 -6.67078125 -0.05046875 -5.6640625 -0.3984375 C-3 -1 -3 -1 0 0 Z " fill="#000000" transform="translate(73,132)"/>
</svg>
